<svg width="33" height="43" viewBox="0 0 33 43" fill="none" xmlns="http://www.w3.org/2000/svg">
<path id="Vector" d="M26.8641 5.13046e-05C25.964 0.0052681 25.3381 0.278921 24.9553 0.935413C23.344 3.69757 21.4187 6.57733 20.4875 9.83554C20.7485 9.9115 21.006 9.99909 21.258 10.0967C21.9346 10.3587 22.5812 10.6899 23.1483 11.0904C25.6819 8.75273 28.5006 6.95266 31.1954 5.09915C32.2404 4.38033 32.3248 3.8559 32.1324 3.19273C31.9401 2.52956 31.2244 1.69496 30.2437 1.0716C29.263 0.448329 28.0472 0.0346469 27.0479 0.00261393C26.9853 0.00060043 26.9241 -0.000223263 26.8641 5.13046e-05ZM20.5149 0.0683273C19.5929 0.0516701 18.8777 0.653432 18.3134 1.92075C17.4908 3.76896 17.3737 6.81135 18.1804 9.53406C18.1947 9.53333 18.2089 9.53196 18.2234 9.53132C18.4065 9.52335 18.5905 9.52473 18.7755 9.53406C19.6438 6.34706 21.3489 3.61071 22.8255 1.15717C21.8768 0.379596 21.0886 0.0787608 20.5149 0.0683273ZM11.5628 5.39577L10.5966 6.81163C11.9603 7.73052 13.2703 8.61691 14.2602 9.68306C14.6205 10.0711 14.9383 10.4813 15.2089 10.9284C15.5465 10.5068 15.9777 10.1688 16.4686 9.9407C16.5061 9.92349 16.5441 9.90821 16.5816 9.89219C16.2666 9.39431 15.9095 8.93871 15.5225 8.52191C14.3478 7.25643 12.9237 6.31283 11.5628 5.39577ZM32.1541 6.51876C29.462 8.37008 26.764 10.1021 24.3924 12.2646C24.4327 12.3173 24.4704 12.3714 24.5081 12.4256C26.4111 11.8079 29.0618 11.0223 31.3099 10.6492C32.3666 10.4738 32.7509 10.0495 32.927 9.43851C33.1032 8.82751 32.9682 7.90917 32.4379 6.96896C32.3503 6.81462 32.2555 6.66446 32.1541 6.51876ZM11.5473 10.8999C10.1716 10.9183 8.81138 11.2935 7.5024 12.0683L8.38238 13.5354C10.3753 12.3557 12.3048 12.2419 14.385 13.1178C14.4329 12.606 14.5474 12.1422 14.7281 11.7258C14.7603 11.652 14.7952 11.5806 14.8314 11.5103C13.7391 11.0966 12.6385 10.8856 11.5473 10.8999ZM18.5224 11.26C18.0091 11.2524 17.5473 11.3279 17.1948 11.4912C16.7921 11.6777 16.5078 11.9409 16.307 12.4037C16.2257 12.591 16.1624 12.8192 16.1244 13.0895C16.1663 13.0889 16.2081 13.0868 16.25 13.0865C17.7272 13.0788 19.2486 13.34 20.7878 13.9276C21.4976 14.1985 22.1738 14.6097 22.8165 15.1342C23.1126 14.9105 23.2757 14.7023 23.3478 14.5361C23.4591 14.2801 23.4485 14.0617 23.2894 13.7289C22.971 13.0631 21.8901 12.1771 20.6341 11.6907C20.0061 11.4474 19.3477 11.3041 18.7456 11.2684C18.6703 11.2638 18.5958 11.2611 18.5224 11.26ZM16.2443 14.7797C14.1295 14.7865 12.129 15.4557 10.263 16.5902C7.27741 18.4055 4.68981 21.4522 2.86975 24.8302C1.04987 28.2081 0.00489575 31.9149 1.86989e-05 34.9462C-0.00485835 37.9719 0.944142 40.1877 3.01937 41.1498C3.02333 41.1516 3.02692 41.1537 3.03088 41.1555H3.03382C5.32254 42.2089 9.0718 42.9253 13.0094 42.9944C16.9469 43.0636 21.0878 42.495 24.2242 41.1468C26.245 40.2783 27.4031 38.5428 27.9511 36.1903C28.4989 33.8377 28.3668 30.9134 27.7325 28.0161C27.0981 25.1187 25.9657 22.2446 24.5951 19.9735C23.2245 17.7025 21.594 16.0688 20.1723 15.5261C18.823 15.0111 17.5131 14.7757 16.2443 14.7797Z" fill="currentColor" />
</svg>
